<?xml version="1.0" standalone="no"?><!DOCTYPE svg PUBLIC "-//W3C//DTD SVG 1.1//EN" "http://www.w3.org/Graphics/SVG/1.1/DTD/svg11.dtd"><svg class="icon" width="200px" height="200.00px" viewBox="0 0 1024 1024" version="1.1" xmlns="http://www.w3.org/2000/svg"><path d="M410.962328 828.618101c-0.314155-0.833995-6.860245-24.987091-14.543228-53.653991l-13.959943-52.114938-55.67502-96.374978-55.685253-96.373954 0-42.473347 0-42.473347 36.997636 0 36.986379 0 14.631232 14.673188c8.040117 8.06263 15.051811 14.662955 15.561417 14.662955 0.508583 0 0.940418-55.966663 0.940418-124.369565L376.215966 225.752604l16.817014-16.794501 16.817014-16.784268 29.336142 0 29.335119 0 17.378809 17.411555 17.389042 17.421788 0.314155 53.16485 0.325411 53.153594 28.287253 0.335644 28.28623 0.335644 9.371438 16.470113 9.360182 16.48137 30.202882 0 30.190603 0 12.790304 12.834306 12.791327 12.834306 15.301498 0 15.312754 0 35.123962 35.146475 35.138288 35.137265 0 94.728478 0 94.719268-20.170388 20.139689-20.172435 20.138666 0 20.820188 0 20.808932-12.216229 12.173251-12.217253 12.173251 0 35.775808 0 35.775808L556.443723 830.154084c-114.76993 0-144.994302-0.324388-145.44865-1.526773L410.962328 828.618101zM667.05903 771.156388l0-26.003234 12.216229-12.173251 12.227486-12.173251 0-20.810978 0-20.820188 20.778232-20.74344 20.776186-20.754696 0-80.077803 0-80.066547-26.068725-26.047236-26.058492-26.03598-5.41022 0.378623-5.409197 0.378623-0.324388 27.810393-0.335644 27.800159-16.470113 0-16.480346 0 0-35.688827 0-35.69906-4.524037-4.631484-4.523013-4.641717-20.527522 0-20.529569 0 0 27.497261 0 27.506471-16.501836 0-16.502859 0 0-33.480532 0-33.480532-6.384407-11.157107-6.384407-11.168364-18.362206 0.335644-18.36323 0.345877-0.325411 38.804794-0.314155 38.794561-16.491603 0L470.284411 445.154569 470.284411 343.445096l0-101.70845-7.607258-7.67275-7.597025-7.67275-15.885805 0-15.884782 0-7.066953 6.990205-7.066953 6.991228 0 174.503383 0 174.504406-16.361643 0-16.361643 0-0.909719-40.330544L374.646214 508.71928l-6.892991 0-6.892991 0L346.239234 494.045069l-14.630209-14.662955-13.764492 0L304.068785 479.382115l0 20.311605 0 20.312628 54.800094 94.880951 54.787814 94.869694 11.265578 42.170448c6.200212 23.190165 11.491729 42.852994 11.784394 43.696198 0.400113 1.201361 24.574698 1.52575 115.430986 1.52575l114.923426 0L667.061077 771.156388 667.05903 771.156388z" /></svg>